<?xml version="1.0" encoding="utf-8"?>
<!-- Generator: Adobe Illustrator 18.1.1, SVG Export Plug-In . SVG Version: 6.00 Build 0)  -->
<svg version="1.1" id="Layer_1" xmlns="http://www.w3.org/2000/svg" xmlns:xlink="http://www.w3.org/1999/xlink" x="0px" y="0px"
	 viewBox="0 0 378 222" enable-background="new 0 0 378 222" xml:space="preserve">
<path fill="#FFFFFF" d="M30,163.7l-0.5,1.9c-0.2,0.6-0.6,1-1,1.3c-0.7,0.3-2.3,0.5-4.9,0.9l-2.8,0.3l-0.9,0l-1.2,0.1h-1.2l-2.9,0.1
	l-0.1-0.6l0-0.7v-0.4c0-0.3,0-0.5,0.1-0.6l0.2-0.6c0.1-0.3,0.2-0.4,0.3-0.5l0.7,0.2l0.9,0.1h0.9c1.7,0,3.5-0.1,5.2-0.4l1.1-0.1
	l0.7-0.1l0.7-0.2l0.7-0.1L27,164l1-0.2l0.7-0.2c0-0.9-0.1-1.7-0.2-2.5l-0.1-0.9l-0.2-0.8l-0.5-2.4l-0.4-2.1l-0.4-2.2l-0.4-2.9
	l-0.1-1.1c-0.1-0.1-0.3-0.3-0.6-0.8c-0.2-0.5-0.3-1-0.3-1.5c0-0.5,0.2-1,0.5-1.6c0.4-0.6,0.6-0.9,0.8-0.9c0.1,0,0.2,0.1,0.2,0.3
	l0,0.3l0,0.3c0,0.1,0.1,0.3,0.3,0.6l1.2,0.9l0.1,0.7v0.2l0,0.3c0,0.1-0.1,0.4-0.2,0.7c-0.1,0.5-0.3,0.8-0.5,1.2l0.9,5.8l0.5,2.9
	l0.3,1.4l0.2,1l0.1,0.9v0.6L30,163.7z M22.5,154.4c0.7,0.1,1,0.4,1,0.9c-0.2,0.9-0.4,1.5-0.5,1.8c-0.2,0.4-0.6,1-1.3,1.9
	c-0.4,0.3-0.9,0.5-1.5,0.7c-0.4,0.1-1,0.2-1.6,0.2l-2.1,0.1l0-0.3l0-0.3c0-0.1,0.1-0.1,0.2-0.2c1.5-0.5,2.4-0.8,2.6-0.9l1.7-0.8
	c-0.8-0.3-1.3-0.5-1.5-0.6c-0.2-0.1-0.2-0.4-0.2-0.8v-0.6c0-0.7,0.4-1.7,1.3-3l1.3-1.7l0.4,0.2c0,0,0.1,0.2,0.1,0.5
	c0,0.2-0.1,0.5-0.3,0.8l-0.9,1.7L22.5,154.4z M47.6,167.3c-0.4,0-0.7,0-0.9-0.1l-0.4-0.1c-0.2,0-0.3-0.1-0.4-0.2
	c-1.1-0.5-1.9-1.9-2.6-4.2c-0.6-1.9-0.8-3.8-0.8-5.6c0-0.4,0-0.8-0.1-1.3c-0.1-0.6-0.1-0.9-0.1-0.9l-0.2-1c-0.1-0.5-0.2-1.1-0.5-1.9
	l-0.1,5.5c0,1.7-0.2,3.2-0.7,4.7c-0.2,0.6-0.4,1.2-0.7,1.6c-0.2,0.4-0.5,0.9-0.9,1.3c-0.4,0.5-1,1-1.8,1.6c-1,0.7-2.1,1.3-3.4,1.9
	c-1.3,0.6-2.4,0.9-3.4,1.1l-1,0.1h-0.2l-0.1,0l0.2-0.2l0.5-0.4l1.7-1.1c1.1-0.7,2.3-1.6,3.4-2.5c1.1-0.9,1.8-1.6,2.1-2.1
	c-0.1-0.8-0.4-1.6-0.7-2.4c-0.3-0.8-0.7-1.5-1.1-2.1l-0.5-0.7l-0.6-0.8l-1.9-2c-0.1,0.1-0.2,0.2-0.3,0.3l-0.3,0.1
	c-0.1,0-0.2,0-0.3-0.1l-0.3-0.2l-0.3-0.1l-0.4-0.3l-0.6-0.4l-0.3-0.6l-0.3-0.7l-0.1-0.6l-0.1-0.8c0-0.4,0-0.7,0-0.7l0.1-0.5
	c0.1-0.2,0.2-0.4,0.5-0.4l0.4,0.2c1.6,0.9,3,2,4,3.1c0.5,0.5,0.9,1.1,1.3,1.8c0.4,0.7,0.8,1.5,1.3,2.5l0.6,1.8l0.2,1l0.3,1.8
	c0.7-0.8,1.3-2,1.9-3.6c0.3-1.3,0.5-2.2,0.5-2.6l0.2-4.1v-0.5v-0.6c0-1.2,0-2,0.1-2.3c0.1-0.4,0.2-1,0.4-1.7l0.4-0.2
	c0.2,0,0.5,0.3,0.7,1l0.3,1.4l0.4,2.2l1,6.5c0.1,0.8,0.3,1.6,0.5,2.4c0.3,1,0.8,1.9,1.2,2.5c0.6,0.8,1.3,1.2,2.1,1.2V167.3z
	 M56.1,160c0.3,0.8,0.4,1.6,0.4,2.3c0,0.3,0,0.6-0.1,0.9c-0.1,0.3-0.2,0.6-0.4,0.9c-0.3,0.6-0.7,1-1.1,1.2l-0.9-0.1
	c-1.4-0.2-2.4-0.6-3.1-1.2c-0.2,0.1-0.6,0.8-1.2,1.9c-0.4,0.7-1.1,1.2-2.1,1.4v-2.9c1.1-0.1,1.9-0.6,2.4-1.3c0.5-0.7,1-1.2,1.4-1.5
	h0.3c0.3-0.8,0.6-1.5,1.1-2.1c0.5-0.6,1-0.8,1.5-0.8C55.1,158.6,55.7,159.1,56.1,160 M54.7,162.6l-0.1-0.6c0-0.2-0.1-0.4-0.1-0.4
	c-0.2-0.4-0.5-0.6-0.9-0.6l-0.2,0c-0.2,0-0.5,0.2-0.7,0.4l-0.3,0.4c0.4,0.3,0.7,0.4,1,0.6L54.7,162.6z M70,167.3
	c-1.3,0-2.3-0.4-3.1-1.1c-0.5-0.5-1.1-1.5-1.5-2.9c-0.2-0.8-0.5-2.2-0.7-4.2l-0.3-2.6c-0.1-0.7-0.1-1.2-0.1-1.7v-0.7v-0.9l-0.2-2.7
	l0-1.9c0-0.7,0-1.1,0.1-1.3c0-0.5,0.1-1.1,0.2-1.8c0.1-0.3,0.2-0.8,0.5-1.4c0.4-1,1-1.6,1.8-1.7l0.1,0.3l0.1,0.4l0,0.7l0,0.6l0,0.4
	c-0.5,0.4-0.8,0.7-1,1.1c-0.4,0.9-0.6,2.1-0.6,3.6v1v0.9l0.1,3.2v0.8l0.1,1.1v0.5l0.2,1l0.2,1.5c0.2,1.5,0.7,2.7,1.6,3.7
	c0.7,0.9,1.6,1.3,2.7,1.3V167.3z M77.9,167.3c-0.3,0-0.7-0.1-1.2-0.3c-0.7-0.3-1.3-0.6-1.7-0.9c-0.1-0.1-0.4-0.4-0.7-1l-0.4-0.8
	c-0.8,1.2-1.4,2-1.8,2.2c-0.7,0.5-1.4,0.8-2.3,0.8v-2.9l0.6,0h0.3l0.2-0.1l0.8-0.2l0.5-0.2c0.4-0.2,1-0.9,1.7-2.1
	c0.3-0.5,0.6-0.8,0.8-0.8c0.1,0,0.2,0,0.3,0.1l0,0.5l0,0.7c0,0.3,0.4,0.7,1.1,1.2c0.7,0.6,1.3,0.8,1.8,0.8V167.3z M73.4,175.5
	c0,0.2-0.1,0.6-0.3,1.2c-0.2,0.6-0.4,0.9-0.6,0.9c-0.1,0-0.3,0-0.5-0.1l-0.8-0.4c-0.5-0.3-0.8-0.6-0.9-0.9c0-0.1,0.1-0.5,0.4-1.1
	c0.3-0.6,0.5-1,0.6-1.1l0.4,0.2l0.5,0.4l0.4,0.3L73.4,175.5z M75.8,173.7c0.3,0.2,0.5,0.5,0.7,0.8c0,0.1,0,0.3-0.1,0.5
	c0,0.2-0.1,0.4-0.2,0.6c-0.2,0.6-0.5,0.9-0.8,1.1c-0.2,0-0.5-0.2-1-0.6c-0.5-0.4-0.8-0.7-1-1l0.2-0.5l0.4-0.7
	c0.3-0.5,0.5-0.9,0.7-0.9C74.8,172.8,75.2,173.1,75.8,173.7 M97.8,167.3l-0.5-0.1c-0.3,0-0.6-0.1-0.9-0.3c-0.5-0.2-0.8-0.4-1-0.7
	l-1.1-1.8c-0.4,1-0.7,1.6-0.9,1.9c-0.5,0.5-1.2,0.8-2.1,0.8c-0.3,0-0.8-0.1-1.3-0.4c-0.4-0.2-0.7-0.4-1-0.7c-0.6,0.4-1.2,0.8-1.7,1
	c-0.4,0.1-1,0.2-1.9,0.2c-1.2,0-2.1-0.1-2.6-0.4c-0.5-0.3-0.8-0.6-0.8-1.1c-0.4,0.5-1.3,1-2.5,1.4l-0.8,0.1l-0.7,0.1v-2.9
	c0.7,0,1.3-0.1,1.7-0.2c0.3-0.1,0.9-0.3,1.8-0.7c0.2-0.1,0.6-0.4,1.4-1.1c0.1-0.1,0.3-0.2,0.7-0.4c0.2,0,0.3,0.1,0.3,0.3l-0.2,0.6
	l-0.4,0.7c0,0.1,0.3,0.2,0.7,0.4l0.7,0.1l0.7,0.1c1.2,0,2-0.1,2.4-0.2c0.7-0.2,1.2-0.6,1.5-1.2c0-0.1,0.1-0.2,0.2-0.3
	c0.1-0.1,0.4-0.3,0.7-0.5l0.4-0.1c0.1,0,0.2,0.1,0.2,0.2l-0.3,0.9c-0.1,0.2-0.1,0.4-0.1,0.6l0.5,0.3c0.2,0.1,0.5,0.1,0.8,0.1
	c0.9,0,1.5-0.3,1.8-0.9c0.5-1,0.9-1.7,1.3-2l0.2-0.1c0.1,0,0.1,0.1,0.1,0.3c0,0.4-0.1,0.9-0.3,1.6l0.5,0.5l0.6,0.5
	c0.4,0.3,1,0.4,1.8,0.6V167.3z M105.7,167.3c-0.4,0-0.7-0.1-1.2-0.3c-0.8-0.3-1.3-0.6-1.7-0.9c-0.1-0.1-0.4-0.4-0.7-1l-0.3-0.8
	c-0.8,1.2-1.4,2-1.8,2.2c-0.7,0.5-1.4,0.8-2.3,0.8v-2.9l0.6,0h0.3l0.2-0.1l0.8-0.2l0.5-0.2c0.4-0.2,1-0.9,1.7-2.1
	c0.3-0.5,0.6-0.8,0.8-0.8c0.1,0,0.2,0,0.3,0.1l0,0.5l0,0.7c0,0.3,0.4,0.7,1.1,1.2c0.7,0.6,1.3,0.8,1.8,0.8V167.3z M101.2,175.5
	c0,0.2-0.1,0.6-0.3,1.2c-0.2,0.6-0.4,0.9-0.6,0.9c-0.1,0-0.3,0-0.5-0.1l-0.8-0.4c-0.5-0.3-0.8-0.6-0.9-0.9c0-0.1,0.1-0.5,0.4-1.1
	c0.3-0.6,0.5-1,0.6-1.1l0.4,0.2l0.5,0.4l0.4,0.3L101.2,175.5z M103.6,173.7c0.3,0.2,0.5,0.5,0.6,0.8c0,0.1,0,0.3-0.1,0.5
	c0,0.2-0.1,0.4-0.2,0.6c-0.2,0.6-0.5,0.9-0.8,1.1c-0.2,0-0.5-0.2-1-0.6c-0.5-0.4-0.8-0.7-1-1l0.2-0.5l0.4-0.7
	c0.3-0.5,0.5-0.9,0.7-0.9C102.6,172.8,103,173.1,103.6,173.7 M112,167.3c-0.9-0.1-1.6-0.5-2.1-1.1c-0.5-0.6-1.1-1.7-1.7-3.4
	c0,1-0.3,1.9-0.9,2.9c-0.6,1-1.1,1.5-1.7,1.5v-2.9c0.5,0,0.9-0.1,1.2-0.4c0.3-0.2,0.4-0.6,0.4-1.2c0-0.8-0.1-1.8-0.3-3.1l-0.6-4.8
	l-0.5-3.7l-0.1-1.6l-0.1-1.9c0-0.8,0.1-1.4,0.3-2c0.2-0.6,0.4-0.9,0.6-0.9c0.1,0,0.1,0.1,0.2,0.2l0.1,0.8l0,1.4l0.2,1.7l0.6,3.9
	c0.2,1.3,0.4,2.7,0.8,4.2c0.3,1.5,0.7,2.8,1,3.9c0.2,0.6,0.4,1.1,0.6,1.5c0.2,0.4,0.5,0.8,0.7,1.1c0.3,0.4,0.8,0.7,1.3,0.9V167.3z
	 M120.5,160c0.3,0.8,0.4,1.6,0.4,2.3c0,0.3,0,0.6-0.1,0.9c-0.1,0.3-0.2,0.6-0.4,0.9c-0.3,0.6-0.7,1-1.1,1.2l-0.9-0.1
	c-1.4-0.2-2.4-0.6-3.1-1.2c-0.2,0.1-0.6,0.8-1.2,1.9c-0.4,0.7-1.1,1.2-2.1,1.4v-2.9c1.1-0.1,1.9-0.6,2.4-1.3c0.5-0.7,1-1.2,1.4-1.5
	h0.3c0.3-0.8,0.6-1.5,1.1-2.1c0.5-0.6,1-0.8,1.5-0.8C119.6,158.6,120.1,159.1,120.5,160 M119.2,162.6l-0.1-0.6
	c0-0.2-0.1-0.4-0.1-0.4c-0.2-0.4-0.5-0.6-0.9-0.6l-0.2,0c-0.2,0-0.5,0.2-0.7,0.4l-0.3,0.4c0.4,0.3,0.7,0.4,1,0.6L119.2,162.6z
	 M139.8,167.3c-0.4,0-0.9-0.2-1.5-0.5c-0.3-0.3-0.7-0.6-1-1.1l0.1,3.2l0.1,2.4l0,0.3c0,1.3-0.5,2.5-1.6,3.6
	c-1.3,1.4-3.1,2.1-5.3,2.1c-1.7,0-3-0.5-3.9-1.4c-0.9-0.9-1.3-2.2-1.3-3.9c0-0.5,0.3-1.6,0.8-3.3c0.6-1.7,1-2.5,1.3-2.5l0.1,0
	l0.1,0.1l0.1,0.3l-0.1,0.3l-0.3,0.8l-0.4,1.2c-0.2,0.8-0.3,1.3-0.3,1.6c0,1.1,0.4,2,1.1,2.8c0.7,0.6,1.6,0.9,2.8,0.9
	c1.2,0,2.3-0.2,3.4-0.7c1-0.5,1.9-1.2,2.5-2.2c0-2-0.1-4.3-0.4-6.9c-0.1-1.2-0.3-2.5-0.5-3.8l-0.5-3.4c0-0.3,0-0.5-0.1-0.7
	c0-0.2-0.1-0.5-0.1-0.8l-0.3-1.6l-0.4-2.5l-0.1-1.1l-0.1-1.1c0-0.4,0-0.6,0-0.6l0.1-0.7l0.2-1.1c0-0.1,0-0.2,0.1-0.2l0.1,0.1
	l0.2,0.2l0.3,0.7c0.1,0.5,0.3,1.2,0.5,2.3l0.3,2l0.3,2c0.4,3.4,0.8,5.6,1.2,6.7c0.6,2.2,1.4,3.4,2.4,3.6V167.3z M182.7,167.3
	c-1.2,0-2.1-0.1-2.7-0.2c-1-0.2-1.5-0.8-1.6-1.6v-0.2v-0.3c0-0.1,0-0.2,0.1-0.4l0.2-0.7l-0.5,0h-0.3l-0.3,0.1l-1.3,0.2l-7.3,1.1
	l-6,0.8l-6.1,0.7c-0.6,0-1,0-1.3,0.1l-1.2,0.2c-0.8,0-1.5,0-2.2,0.1c-0.6,0.1-1.2,0.1-1.9,0.2h-1l-2.3,0.1l-2.7,0.1h-2.5l-2.4-0.1
	v-2.9l4.2,0l3.4-0.1h3.1c2.4,0,4.7-0.1,7.1-0.3l1,0l1.1-0.1l4.2-0.7l7.1-1l4.8-0.6c2-0.2,3.2-0.4,3.6-0.5c0-0.6-0.4-1-1.2-1.4
	l-0.7-0.3l-0.8-0.3c-0.5-0.1-0.9-0.2-1.3-0.2l-4.6,0.6l-3.4,0.4l-3.1,0.3l-2.9,0.3c-4.1,0.4-7.4,0.6-10.1,0.6l-1.2,0.1h-1.3
	l-2.6-0.1l-1.1-0.1h-0.2l-0.3,0l-0.7-0.1c-0.7-0.1-1.3-0.3-1.8-0.7c-0.4-0.3-0.7-0.8-0.7-1.2c0-0.5,0.4-1.3,1.2-2.5l0.7-0.9l0.8-1
	c0.6-0.7,1.2-1.3,1.8-1.8c2-1.4,3.8-2.5,5.4-3.4c1.2-0.7,2.3-1.2,3.2-1.6l2-0.7c0.2-0.1,0.4-0.1,0.5-0.1l0.1,0l0.1,0.1l-0.1,0.2
	l-0.3,0.6l-0.5,0.7c-0.2,0.3-0.4,0.5-0.4,0.6l-2.3,1.1l-1.4,0.7l-1.5,0.9l-2.9,1.8l-1.2,0.8l-1.2,0.9l-0.4,0.3l-0.6,0.5l-1,0.9
	c0,0.2,0.1,0.3,0.2,0.5c0.3,0.3,1.6,0.6,4.1,0.9h2.3h3.5h4.3l1.2,0l1.1,0l3.3-0.2h0.4h0.2l0.2,0l1.1-0.2l3.1-0.5l6.3-0.8
	c0.8-0.1,1.4-0.2,1.9-0.2c0.6,0,1.2,0.1,1.7,0.2l1,0.3c0.9,0.4,1.7,0.8,2.1,1.2c0.7,0.6,1,1.2,1,2l0,0.4l-0.1,0.4
	c-0.1,0.3-0.3,0.8-0.6,1.4c-0.4,0.7-0.8,1.2-1.2,1.3l-0.4,0.1c0,0.4,0.3,0.6,1,0.8l0.7,0.1l0.7,0h0.2h0.2l0.2-0.1V167.3z
	 M190.7,167.3c-0.4,0-0.7-0.1-1.2-0.3c-0.7-0.3-1.3-0.6-1.7-0.9c-0.1-0.1-0.4-0.4-0.7-1l-0.4-0.8c-0.8,1.2-1.4,2-1.8,2.2
	c-0.7,0.5-1.4,0.8-2.3,0.8v-2.9l0.6,0h0.3l0.2-0.1l0.8-0.2l0.5-0.2c0.4-0.2,1-0.9,1.7-2.1c0.3-0.5,0.6-0.8,0.8-0.8
	c0.1,0,0.2,0,0.3,0.1l0,0.5l0,0.7c0,0.3,0.4,0.7,1.1,1.2c0.7,0.6,1.3,0.8,1.8,0.8V167.3z M186.2,175.5c0,0.2-0.1,0.6-0.3,1.2
	c-0.2,0.6-0.4,0.9-0.6,0.9c-0.1,0-0.3,0-0.5-0.1l-0.8-0.4c-0.5-0.3-0.8-0.6-0.9-0.9c0-0.1,0.1-0.5,0.4-1.1c0.3-0.6,0.5-1,0.6-1.1
	l0.4,0.2l0.5,0.4l0.4,0.3L186.2,175.5z M188.6,173.7c0.3,0.2,0.5,0.5,0.7,0.8c0,0.1,0,0.3-0.1,0.5c0,0.2-0.1,0.4-0.2,0.6
	c-0.2,0.6-0.5,0.9-0.8,1.1c-0.2,0-0.5-0.2-1-0.6c-0.5-0.4-0.8-0.7-1-1l0.2-0.5l0.4-0.7c0.3-0.5,0.5-0.9,0.7-0.9
	C187.5,172.8,187.9,173.1,188.6,173.7 M197.9,167.3c-0.3,0-0.9-0.2-1.8-0.6l-1-0.5l-0.7-0.2l-0.4,0.1l-1.4,0.7
	c-0.6,0.3-1.2,0.5-1.8,0.5v-3c0.8-0.2,1.4-0.3,1.7-0.5l1.5-0.7h0.3c0.5,0,1.1,0.2,1.9,0.6l1,0.5c0,0,0.2,0,0.3,0.1
	c0.2,0,0.3,0.1,0.3,0.1V167.3z M195.2,154.5l-0.4,1.1c-0.1,0.3-0.2,0.6-0.5,0.8c0,0-0.1,0.1-0.2,0.1c-0.3,0-0.7-0.1-1.2-0.3
	c-0.8-0.3-1.2-0.6-1.2-0.9l0.1-0.3l0.6-1.3c0.2-0.5,0.4-0.8,0.7-0.8l0.2,0l1.3,0.6c0.4,0.2,0.6,0.4,0.6,0.7L195.2,154.5z
	 M240.9,167.3c-1.2,0-2.1-0.1-2.7-0.2c-1-0.2-1.5-0.8-1.5-1.6v-0.2v-0.3c0-0.1,0-0.2,0.1-0.4l0.2-0.7l-0.5,0h-0.4l-0.3,0.1l-1.3,0.2
	l-7.3,1.1l-6,0.8l-6.1,0.7c-0.6,0-1,0-1.3,0.1l-1.2,0.2c-0.8,0-1.5,0-2.2,0.1c-0.6,0.1-1.3,0.1-1.9,0.2h-1l-2.3,0.1l-2.7,0.1h-2.5
	l-2.4-0.1v-2.9l4.2,0l3.4-0.1h3.1c2.4,0,4.7-0.1,7.1-0.3l1,0l1.1-0.1l4.2-0.7l7.1-1l4.8-0.6c2-0.2,3.2-0.4,3.6-0.5
	c0-0.6-0.4-1-1.2-1.4l-0.7-0.3l-0.7-0.3c-0.5-0.1-0.9-0.2-1.3-0.2l-4.6,0.6l-3.4,0.4l-3.1,0.3l-2.9,0.3c-4.1,0.4-7.4,0.6-10,0.6
	l-1.2,0.1h-1.3l-2.6-0.1L203,161h-0.2l-0.3,0l-0.7-0.1c-0.7-0.1-1.3-0.3-1.8-0.7c-0.4-0.3-0.7-0.8-0.7-1.2c0-0.5,0.4-1.3,1.2-2.5
	l0.7-0.9l0.8-1c0.6-0.7,1.2-1.3,1.8-1.8c2-1.4,3.8-2.5,5.4-3.4c1.2-0.7,2.3-1.2,3.2-1.6l2-0.7c0.2-0.1,0.4-0.1,0.5-0.1l0.1,0
	l0.1,0.1l-0.1,0.2l-0.3,0.6l-0.5,0.7c-0.2,0.3-0.4,0.5-0.4,0.6l-2.3,1.1l-1.4,0.7l-1.5,0.9l-2.9,1.8l-1.2,0.8l-1.2,0.9l-0.4,0.3
	l-0.6,0.5l-1,0.9c0,0.2,0.1,0.3,0.2,0.5c0.3,0.3,1.6,0.6,4.1,0.9h2.3h3.5h4.3l1.2,0l1.1,0l3.3-0.2h0.4h0.2l0.2,0l1.1-0.2l3.1-0.5
	l6.3-0.8c0.8-0.1,1.4-0.2,1.9-0.2c0.6,0,1.2,0.1,1.7,0.2l1,0.3c0.9,0.4,1.7,0.8,2.1,1.2c0.7,0.6,1,1.2,1,2l0,0.4l-0.1,0.4
	c-0.1,0.3-0.3,0.8-0.6,1.4c-0.4,0.7-0.8,1.2-1.2,1.3l-0.4,0.1c0,0.4,0.3,0.6,1,0.8l0.7,0.1l0.7,0h0.3h0.2l0.2-0.1V167.3z
	 M248.8,167.3c-0.4,0-0.7-0.1-1.2-0.3c-0.8-0.3-1.3-0.6-1.7-0.9c-0.1-0.1-0.4-0.4-0.7-1l-0.4-0.8c-0.8,1.2-1.4,2-1.8,2.2
	c-0.7,0.5-1.4,0.8-2.3,0.8v-2.9l0.6,0h0.3l0.2-0.1l0.8-0.2l0.4-0.2c0.5-0.2,1-0.9,1.7-2.1c0.3-0.5,0.6-0.8,0.8-0.8
	c0.1,0,0.2,0,0.3,0.1l0,0.5l0,0.7c0,0.3,0.4,0.7,1.1,1.2c0.7,0.6,1.3,0.8,1.8,0.8V167.3z M244.3,175.5c0,0.2-0.1,0.6-0.3,1.2
	c-0.2,0.6-0.4,0.9-0.6,0.9c-0.1,0-0.3,0-0.5-0.1l-0.8-0.4c-0.5-0.3-0.8-0.6-0.9-0.9c0-0.1,0.1-0.5,0.4-1.1c0.3-0.6,0.5-1,0.6-1.1
	l0.4,0.2l0.5,0.4l0.4,0.3L244.3,175.5z M246.7,173.7c0.3,0.2,0.5,0.5,0.7,0.8c0,0.1,0,0.3-0.1,0.5c0,0.2-0.1,0.4-0.2,0.6
	c-0.2,0.6-0.5,0.9-0.8,1.1c-0.2,0-0.5-0.2-1-0.6c-0.5-0.4-0.8-0.7-1-1l0.2-0.5l0.4-0.7c0.3-0.5,0.5-0.9,0.7-0.9
	C245.6,172.8,246,173.1,246.7,173.7 M249.2,152c0,0.1-0.1,0.5-0.3,1.2c-0.2,0.6-0.4,1-0.6,1c-0.2,0-0.5-0.2-1.1-0.6
	c-0.6-0.4-0.9-0.7-1-0.9c0-0.1,0-0.4,0.2-0.8c0.3-0.5,0.5-1,0.8-1.4c0.1,0,0.2,0.1,0.4,0.2l0.6,0.4l0.6,0.5L249.2,152z M251.9,163.2
	v0.8l-0.1,0.4l-0.1,0.5l-0.1,0.2l-0.1,0.3l-0.2,0.6l-0.2,0.6c-0.2,0.4-0.5,0.6-1.1,0.8l-0.6,0.1h-0.8v-2.9c0.3,0,0.7-0.1,1-0.2
	c0.4-0.1,0.6-0.4,0.8-0.7l-0.1-0.3l-0.2-0.3c-0.1-0.2-0.3-0.5-0.5-0.7c-0.2-0.3-0.4-0.8-0.5-1.3l0.3-0.9c0.1-0.4,0.3-0.8,0.5-1.1
	l0.2,0c0.3,0,0.5,0.3,0.9,0.9C251.4,160.3,251.7,161.4,251.9,163.2 M252.6,150.7c0,0.2-0.1,0.6-0.3,1.1c-0.3,0.6-0.5,1-0.9,1.1
	c-0.2,0-0.5-0.2-1-0.6c-0.5-0.4-0.8-0.7-1-1l0.1-0.4l0.2-0.3l0.3-0.6c0.3-0.6,0.5-0.9,0.7-0.9c0.1,0,0.4,0.2,1,0.6
	C252.2,150.1,252.5,150.4,252.6,150.7 M278.5,167.3c-1,0-1.9-0.2-2.8-0.6l-0.8-0.5c-0.3-0.2-0.6-0.5-0.9-0.8c-0.5-0.5-1-0.9-1.5-1.2
	c-0.3-0.1-1,0.3-2.2,1.3c-1.2,1-1.8,1.9-1.8,2.6l0.1,0.4c0.1,0.2,0.5,0.5,1.3,0.7l1.2,0.3c0.4,0,0.7,0.1,0.9,0.1c0.2,0,0.3,0,0.5,0
	h0.9h0.5h0.2l0.4,0.1c0.4,0,0.7,0.1,0.8,0.3c0.2,0.1,0.4,0.4,0.6,0.8l0.2,0.7c0,0.6-0.1,1.1-0.2,1.5c-0.1,0.4-0.4,0.8-0.9,1.3
	c-1.6,1.7-3.5,3-5.8,4c-1.9,0.8-3.6,1.3-5.1,1.3c-1.8,0-3.3-0.6-4.4-1.9c-1-1.2-1.4-2.8-1.4-4.9c0-0.4,0.1-1,0.2-1.7l0.3-1l0.2-0.5
	l0.2-0.6c0.5-1.4,1-2.3,1.4-2.7l0.4-0.2c0.1,0,0.2,0.1,0.2,0.2c0,0.1,0,0.2-0.1,0.3l-0.5,1.1l-0.6,1.3c-0.3,0.9-0.5,1.7-0.5,2.5
	c0,0.4,0.1,0.8,0.2,1.3c0.2,0.9,0.7,1.7,1.3,2.4c0.9,0.8,2.2,1.3,3.8,1.3c0.8,0,1.7-0.1,2.5-0.3c0.8-0.2,1.7-0.5,2.7-0.9
	c2.1-0.8,3.8-1.9,5-3.1l-0.4-0.2l-0.5-0.1h-0.7c-1.9,0-3.2-0.1-4-0.3c-1.3-0.4-1.9-1-1.9-2.1c0-1.4,0.6-3,1.7-4.9c1.3-2,2.7-3,4.3-3
	l2.5,1.9c0.8,0.6,1.7,0.9,2.6,0.9V167.3z M266.9,182.5c0.4,0.3,0.7,0.6,1.1,1c0.1,0.2,0,0.6-0.2,1.2c-0.2,0.6-0.4,0.9-0.6,0.9
	c-0.1,0-0.3,0-0.5-0.1l-0.8-0.4c-0.5-0.3-0.8-0.6-0.9-0.9c0-0.1,0-0.3,0.2-0.7l0.8-1.5L266.9,182.5z M268.8,155.2
	c0.3,0.2,0.7,0.5,1.1,1c0.1,0.2,0,0.6-0.2,1.2c-0.2,0.6-0.4,0.9-0.6,0.9c-0.1,0-0.3,0-0.5-0.1c-0.2-0.1-0.5-0.2-0.8-0.5
	c-0.6-0.4-0.9-0.7-0.9-0.9c0-0.1,0-0.3,0.3-0.7l0.8-1.5C268.1,154.7,268.4,154.9,268.8,155.2 M270.4,181.2c0.5,0.4,0.9,0.7,1,1.1
	c0,0.1,0,0.3-0.1,0.5c0,0.2-0.1,0.4-0.2,0.6c-0.2,0.6-0.5,1-0.9,1.1c-0.3,0-0.6-0.2-1.1-0.6c-0.4-0.4-0.7-0.7-0.9-1l0.2-0.6l0.3-0.7
	c0.3-0.5,0.5-0.8,0.6-1c0.1,0,0.2,0.1,0.3,0.1C269.9,180.8,270.1,180.9,270.4,181.2 M272.7,154.1c0.4,0.3,0.6,0.6,0.6,0.8
	c0,0.2-0.1,0.6-0.3,1.1c-0.3,0.7-0.6,1.1-0.9,1.1c-0.3,0-0.7-0.2-1.1-0.6l-0.4-0.4l-0.5-0.6l0.2-0.6c0.1-0.2,0.2-0.5,0.3-0.7
	c0.2-0.5,0.4-0.8,0.6-0.9C271.6,153.3,272,153.5,272.7,154.1 M286.4,167.3c-0.4,0-0.7-0.1-1.2-0.3c-0.8-0.3-1.3-0.6-1.7-0.9
	c-0.1-0.1-0.4-0.4-0.7-1l-0.4-0.8c-0.8,1.2-1.4,2-1.8,2.2c-0.7,0.5-1.4,0.8-2.3,0.8v-2.9l0.6,0h0.3l0.2-0.1l0.8-0.2l0.5-0.2
	c0.4-0.2,1-0.9,1.7-2.1c0.3-0.5,0.5-0.8,0.8-0.8c0.1,0,0.2,0,0.3,0.1l0,0.5l0,0.7c0,0.3,0.4,0.7,1.1,1.2c0.7,0.6,1.3,0.8,1.8,0.8
	V167.3z M281.9,175.5c0,0.2-0.1,0.6-0.3,1.2c-0.2,0.6-0.4,0.9-0.6,0.9c-0.1,0-0.3,0-0.5-0.1l-0.8-0.4c-0.5-0.3-0.8-0.6-0.9-0.9
	c0-0.1,0.1-0.5,0.4-1.1c0.3-0.6,0.5-1,0.6-1.1l0.4,0.2l0.5,0.4l0.4,0.3L281.9,175.5z M284.3,173.7c0.3,0.2,0.5,0.5,0.7,0.8
	c0,0.1,0,0.3-0.1,0.5c0,0.2-0.1,0.4-0.2,0.6c-0.2,0.6-0.5,0.9-0.8,1.1c-0.2,0-0.5-0.2-1-0.6c-0.5-0.4-0.8-0.7-1-1l0.2-0.5l0.4-0.7
	c0.3-0.5,0.5-0.9,0.7-0.9C283.3,172.8,283.7,173.1,284.3,173.7 M304.7,160.8c0,1.1-0.2,2.2-0.7,3.2c-0.5,1.2-1.3,1.7-2.3,1.7
	c-0.4,0-0.9-0.2-1.6-0.5l-0.9-0.6c-0.2,0.6-0.8,1.1-1.8,1.5c-0.9,0.4-1.9,0.6-2.9,0.6c-0.4,0-0.8,0-1.2-0.1
	c-0.4-0.1-0.7-0.1-0.8-0.2c-0.2,0-0.3-0.1-0.5-0.2l-1.3,0.5l-1.1,0.3l-0.9,0.2l-1.2,0.1l-1,0.1v-2.9c1,0,1.9-0.1,2.9-0.3
	c1-0.2,1.7-0.4,2.3-0.7c0.7-0.4,1.2-0.8,1.5-1.3l0.4-1.1c0.1-0.3,0.3-0.4,0.4-0.4c0.1,0,0.1,0.2,0.1,0.4l-0.1,0.7l-0.5,1.7l0.4,0.1
	h0.3h0.6c1.5,0,2.6-0.2,3.4-0.7c0.5-0.3,0.9-0.9,1.1-1.6c0.3-0.9,0.5-1.3,0.5-1.4c0.1-0.2,0.3-0.3,0.4-0.4l0.3-0.2
	c0.1,0,0.1,0.1,0.1,0.3l-0.1,0.5l-0.1,0.4l-0.3,1.2c0.3,0.3,0.7,0.6,1,0.8l1.2,0.2l0.7-0.3c0-0.3,0-0.6-0.2-0.8l-0.1-0.3l0.1-0.4
	c0-0.2,0.1-0.4,0.2-0.6c0.2-0.4,0.3-0.9,0.5-1.6l0.2-0.2c0.1,0,0.3,0.3,0.5,0.8C304.6,159.9,304.7,160.4,304.7,160.8 M325.3,164.5
	c0,0.4-0.1,0.8-0.2,1.2c-0.1,0.4-0.3,0.6-0.5,0.6c-0.1,0-0.1,0-0.2,0l-0.6-0.5l-0.5-0.3c-0.6-0.3-1.3-0.5-2-0.5c-2,0-3.9,1-5.8,3.1
	l-4.4,5.7c-1.6,2.1-3,3.1-4.2,3.1c-0.7,0-1.3-0.4-1.7-1.2c-0.3-0.7-0.5-1.6-0.5-2.6c0-0.8,0.2-2,0.7-3.4l0.5-1.2l0.3-0.7l0.2-0.4
	l0.2-0.3l0.5-0.8c0.1-0.2,0.2-0.3,0.4-0.4c0.1,0,0.2,0.1,0.2,0.3l-0.1,0.2l-0.5,1.1l-0.5,1.5l-0.3,1.3c-0.1,0.4-0.1,0.8-0.1,1.2
	c0,0.7,0.1,1.2,0.3,1.6c0.2,0.5,0.6,0.8,1.1,0.8c0.7,0,1.6-0.5,2.6-1.6l3-3.9c1.3-1.7,2.8-3.2,4.3-4.6l0.8-0.6
	c0.3-0.2,0.6-0.4,1-0.6c1.1-0.6,2-0.9,2.7-0.9c0.7,0,1.4,0.3,2.1,0.8c0.3,0.2,0.6,0.6,0.8,0.9c0.1,0.2,0.2,0.4,0.2,0.6
	C325.3,164.1,325.3,164.3,325.3,164.5 M336,167.3h-0.8c0,0.3-0.1,0.6-0.2,0.9c-0.1,0.3-0.4,0.8-0.6,1.3c-0.6,1.1-1.3,2.1-2.2,3
	c-1,1.1-2.1,1.8-3.2,2.2l-1.1-0.1c-0.4,0-0.6-0.1-0.7-0.1c-0.2-0.1-0.3-0.1-0.4-0.1c-0.7-0.1-1.4-0.3-2.3-0.5
	c-1.6-0.4-2.3-0.7-2.3-0.9c0-0.1,0.2-0.1,0.5-0.1l1.5,0l0.7,0l0.7,0c1.1,0,2-0.1,2.6-0.3c0.5-0.1,1-0.4,1.6-0.7
	c0.6-0.4,1.2-0.9,2-1.5c1.5-1.2,2.3-2.2,2.6-3.1h-0.5h-0.6c-1.1,0-1.8-0.1-2.4-0.4c-0.8-0.4-1.2-1.2-1.2-2.4c0-0.5,0.3-1.4,0.9-2.6
	c0.6-1.2,1.2-1.8,1.9-1.9c0.3-0.1,0.9,0.4,1.6,1.3c0.7,1,1.2,2,1.5,3.1h0.6V167.3z M329.6,154.8l2.3,2.3l-2.8,2.3l-2.1-2.7
	L329.6,154.8z M332.9,164.4c0-0.3-0.1-0.7-0.3-1c-0.2-0.3-0.4-0.5-0.8-0.5c-0.2,0-0.4,0.2-0.7,0.5l-0.1,0.5c0.2,0.2,0.5,0.3,0.7,0.4
	l0.8,0.1h0.2L332.9,164.4z M343.9,167.3c-0.3,0-0.8-0.1-1.2-0.3c-0.8-0.3-1.3-0.6-1.7-0.9c-0.1-0.1-0.4-0.4-0.7-1l-0.3-0.8
	c-0.8,1.2-1.4,2-1.8,2.2c-0.7,0.5-1.4,0.8-2.3,0.8v-2.9l0.6,0h0.3l0.2-0.1l0.8-0.2l0.5-0.2c0.4-0.2,1-0.9,1.7-2.1
	c0.3-0.5,0.5-0.8,0.8-0.8c0.1,0,0.2,0,0.3,0.1l0,0.5l0,0.7c0,0.3,0.4,0.7,1.1,1.2c0.7,0.6,1.3,0.8,1.8,0.8V167.3z M339.4,175.5
	c0,0.2-0.1,0.6-0.3,1.2c-0.2,0.6-0.4,0.9-0.6,0.9c-0.1,0-0.3,0-0.5-0.1l-0.8-0.4c-0.5-0.3-0.8-0.6-0.9-0.9c0-0.1,0.1-0.5,0.4-1.1
	c0.3-0.6,0.5-1,0.6-1.1l0.4,0.2l0.5,0.4l0.4,0.3L339.4,175.5z M341.8,173.7c0.3,0.2,0.5,0.5,0.7,0.8c0,0.1,0,0.3-0.1,0.5
	c0,0.2-0.1,0.4-0.2,0.6c-0.2,0.6-0.5,0.9-0.8,1.1c-0.2,0-0.5-0.2-1-0.6c-0.5-0.4-0.8-0.7-1-1l0.2-0.5l0.4-0.7
	c0.3-0.5,0.5-0.9,0.7-0.9C340.8,172.8,341.2,173.1,341.8,173.7 M345.4,149.1l-0.4,1.1c-0.1,0.4-0.3,0.7-0.5,0.8c0,0-0.1,0.1-0.2,0.1
	c-0.3,0-0.7-0.1-1.2-0.3c-0.8-0.3-1.2-0.6-1.2-0.9c0-0.1,0-0.2,0.1-0.3l0.6-1.3c0.2-0.5,0.4-0.8,0.7-0.8c0.1,0,0.2,0,0.2,0.1
	l1.3,0.6c0.4,0.2,0.6,0.5,0.6,0.7L345.4,149.1z M346.2,159.6c0.4,0.8,0.7,2,0.9,3.5v0.5v0.4l-0.1,0.5l-0.1,0.3l-0.1,0.2l-0.1,0.3
	l-0.1,0.4l-0.2,0.6c-0.2,0.3-0.5,0.6-1.1,0.9c-0.4,0.1-0.9,0.1-1.4,0.1v-2.9c0.4,0,0.8-0.1,1.2-0.2c0.3-0.1,0.6-0.4,0.6-0.7
	c-0.1-0.4-0.4-0.8-0.8-1.4c-0.2-0.3-0.4-0.8-0.5-1.3l0.3-0.9c0.1-0.4,0.3-0.8,0.5-1.1C345.5,158.7,345.8,159,346.2,159.6
	 M358.7,163.1c0,0.5,0,1-0.1,1.3v0.4l-0.1,0.3l-0.2,0.8c-0.1,0.5-0.2,1.1-0.3,1.6c-0.1,0.5-0.3,1.1-0.5,1.7l-1,1.6l-1,1.4
	c-0.6,0.8-1.3,1.5-2.2,2c-0.9,0.6-1.8,0.8-2.9,0.8c-0.5,0-1.2-0.1-2.1-0.2c-0.9-0.1-2-0.3-3.3-0.6c-0.2,0-0.3-0.1-0.3-0.3
	c0-0.1,0-0.2,0.2-0.3l0.3-0.1h0.7l0.6,0l0.9-0.1h0.2c0.1,0,0.1,0,0.2,0l0.5-0.1c0.5-0.1,1-0.3,1.5-0.4c0.5-0.2,1-0.4,1.4-0.6
	c0.8-0.4,1.6-0.9,2.5-1.6c1.6-1.3,2.8-2.9,3.6-4.7l0.1-0.4c0-0.3,0-0.5-0.1-0.6l-0.1-0.3l-0.1-0.3c-0.2,0.6-0.4,1.1-0.6,1.4
	c-0.3,0.5-0.8,0.8-1.4,0.8c-0.6,0-1.3-0.3-1.9-0.9c-0.5-0.5-0.7-1.1-0.7-1.7l0-0.2c0.1-1,0.4-2,0.9-3.1c0.5-1,1.2-1.7,1.9-2.1
	c0.7,0,1.5,0.5,2.2,1.6C358.4,161.1,358.7,162.1,358.7,163.1 M355.9,162.7c-0.1-0.3-0.3-0.5-0.5-0.5c-0.2-0.1-0.4-0.1-0.7-0.1
	l-0.2,0.3l-0.1,0.4c0,0.1,0.2,0.3,0.4,0.4l0.5,0.1c0.1,0,0.2,0,0.3-0.1L355.9,162.7z M365,165.2v0.6l-0.1,0.6l-0.1,0.3l-0.2,0.4
	c-0.1,0.3-0.3,0.4-0.4,0.5c-0.1,0-0.3-0.4-0.5-1.2l-0.5-3.6l-0.5-4.9l-0.2-2l-0.1-1l-0.1-0.8l-0.4-2.5c-0.1-0.8-0.2-1.4-0.2-1.7
	c0-0.6,0-1.2,0.1-1.6c0.1-0.4,0.2-0.8,0.4-1l0.3-0.4c0.1,0,0.2,0.3,0.3,0.8c0.1,0.5,0.2,1.5,0.4,2.9l0.3,2.6l0.4,2.9l0.5,4.1
	l0.3,3.1v0.6l0.1,0.4L365,165.2z"/>
<rect x="157.2" y="129" fill="#D0D2D3" width="208.5" height="11.4"/>
<rect x="157.2" y="26.1" fill="#D0D2D3" width="208.5" height="11.4"/>
<rect x="157.2" y="37.4" fill="#25408E" width="208.5" height="91.6"/>
<path fill="#FFFFFF" d="M200.7,48.4v38.8c0,0.1,0,0.2,0,0.2c0,8.2-1.2,13.6-2.8,15.6c-1.7,2.3-4.3,3.5-8.7,3.5c-2.5,0-4.4-0.6-6-1.7
	c-1.6-1.1-2.7-2.7-3.5-5.1c-0.7-2.3-1.2-6.5-1.2-12.5c0,0,0,0,0,0V46.2h-11v41.1c0,11.2,1.6,19.3,5.4,24.4l0.7-0.5l-0.7,0.5
	c3.8,5,9.5,7.4,16.6,7.4h0h0c0,0,0,0,0,0c0,0,0,0,0,0h0.6l0,0c4.8-0.1,9-1.4,12.3-4.1c3.4-2.7,5.8-6.5,7.1-11.1
	c1.2-4.5,1.8-10,1.8-16.7l0-41.1h-11V48.4z"/>
<polygon fill="#FFFFFF" points="263.8,46.2 217.2,46.2 217.2,58.8 234.8,58.8 234.8,119.1 235.6,119.1 235.6,119.1 237,119.1 
	246.2,119.1 246.2,58.8 263.8,58.8 "/>
<path fill="#FFFFFF" d="M342,46.4L329,96.3c-0.2,0.9-0.5,1.8-0.7,2.6l-0.4-1.7l-12.9-50.8h-14.3v73.8h0.8v0h10.2V76.1l11.4,44.1h9.6
	l11.5-43.5v43.5h1.3h9.7V46.4H342z"/>
<path fill="#FFFFFF" d="M77.3,8C40.8,8,11.1,37.6,11.1,74.2c0,35.8,28.4,65,63.9,66.2v0h68.5V74.2C143.5,37.6,113.9,8,77.3,8"/>
<path fill="#25408E" d="M142.1,81.9v-3.2h-4.2l0.9-0.9H78v-3h64.1c0-35.4-28.7-64.1-64.1-64.1c-35.4,0-64.1,28.7-64.1,64.1
	c0,35.2,28.3,63.8,63.5,64.1v0h64.9v-3.2H81l0.9-0.9H78v-3.2h64.2v-3.2H88.2l0.9-0.9H78v-2.8h64.2v-3.2h-47l0.9-0.9H78v-3h64.2v-3.2
	h-39.9l0.9-0.9H78v-3.2h64.2v-3.2h-32.6l0.9-0.9H78v-2.8h64.2v-3.2h-25.7l0.9-0.9H78v-3.2h64.2v-3.2h-18.4l0.9-0.9H78v-3.2h64.2
	v-3.2H131l0.9-0.9H78v-2.8H142.1z"/>
<path fill="#D0D2D3" d="M131.8,73.9C131.7,44.2,107.4,20,77.4,20C47.3,20,23,44.3,23,74.3c0,29.9,24.3,54.2,54.3,54.3v9.6
	c-35.3-0.1-63.9-28.6-63.9-63.8c0-35.2,28.7-63.8,64-63.8c35.3,0,63.9,28.5,64,63.4H131.8z"/>
<path fill="#D0D2D3" d="M77.3,139c-35.8-0.1-64.8-29-64.8-64.7c0-35.7,29.1-64.7,64.9-64.7c35.8,0,64.8,28.9,64.9,64.3l0,0.9h-10.5
	v-0.9l0.9,0l-0.9,0v0.9h-0.9v-0.9c-0.1-29.2-24-53-53.5-53c-14.8,0-28.2,6-37.9,15.6c-9.7,9.7-15.7,23-15.7,37.7
	c0,29.4,23.9,53.3,53.4,53.4l0.9,0V139L77.3,139z M32.7,29.8C21.3,41.2,14.3,56.9,14.3,74.3c0,34.4,27.7,62.4,62.1,62.9v-7.8
	c-30.1-0.5-54.3-25-54.3-55.1c0-30.5,24.8-55.1,55.3-55.1c30.2,0,54.7,24.1,55.3,53.9h7.8c-0.6-34.1-28.6-61.7-63.1-61.7
	C60,11.4,44.2,18.4,32.7,29.8"/>
<path fill="#231F20" d="M69.4,136.3L68,136l0.6-3.7c0.1-0.6,0.2-1,0.1-1.2c0-0.3-0.1-0.5-0.3-0.8c-0.2-0.2-0.5-0.4-0.9-0.4
	c-0.4-0.1-0.7,0-0.9,0.1c-0.2,0.1-0.4,0.3-0.5,0.5c-0.1,0.2-0.2,0.6-0.3,1.2l-0.7,3.8l-1.4-0.2l0.6-3.6c0.1-0.8,0.3-1.4,0.4-1.7
	c0.1-0.3,0.3-0.6,0.6-0.8c0.2-0.2,0.6-0.3,0.9-0.4c0.4-0.1,0.8-0.1,1.4,0c0.7,0.1,1.2,0.3,1.5,0.5c0.3,0.2,0.6,0.5,0.7,0.7
	c0.2,0.3,0.2,0.6,0.3,0.8c0,0.4,0,1-0.2,1.8L69.4,136.3z"/>
<polygon fill="#231F20" points="62.7,127.8 60.5,134.5 59.1,134.1 57.9,128.7 56.4,133.2 55.1,132.7 57.3,126.1 58.7,126.5 
	60,131.8 61.4,127.4 "/>
<rect x="49.5" y="127.3" transform="matrix(0.4115 -0.9114 0.9114 0.4115 -85.462 123.614)" fill="#231F20" width="7" height="1.4"/>
<polygon fill="#231F20" points="50.1,122.6 48.7,129.9 47.4,129.2 48.5,123.8 44.4,127.4 43,126.6 48.8,121.8 "/>
<polygon fill="#231F20" points="45.2,119.6 40.9,125.1 36.7,121.9 37.5,120.9 40.5,123.3 41.4,122.1 38.6,119.9 39.3,118.9 
	42.1,121.1 43.3,119.6 40.2,117.2 40.9,116.3 "/>
<path fill="#231F20" d="M39.3,114.8l-5,4.9l-2.1-2.2c-0.5-0.5-0.9-1-1-1.3c-0.1-0.3-0.2-0.7-0.1-1.1c0.1-0.4,0.3-0.7,0.6-1
	c0.4-0.4,0.8-0.6,1.3-0.6c0.5,0,0.9,0.2,1.4,0.6c-0.1-0.3-0.1-0.7-0.1-1c0-0.3,0.1-0.8,0.3-1.4l0.4-1.6l1.2,1.2l-0.4,1.8
	c-0.1,0.6-0.2,1.1-0.2,1.3c0,0.2,0,0.4,0.1,0.5c0.1,0.2,0.2,0.3,0.4,0.6l0.2,0.2l2.1-2L39.3,114.8z M35.4,116.6l-0.7-0.8
	c-0.5-0.5-0.8-0.8-1-0.9c-0.2-0.1-0.3-0.1-0.5-0.1c-0.2,0-0.3,0.1-0.5,0.3c-0.2,0.2-0.3,0.3-0.3,0.5c0,0.2,0,0.4,0.2,0.6
	c0.1,0.1,0.3,0.3,0.7,0.8l0.8,0.8L35.4,116.6z"/>
<path fill="#231F20" d="M32.2,110.5l-0.9-1c0.3-0.3,0.5-0.7,0.5-1c0-0.3-0.1-0.7-0.3-1c-0.3-0.4-0.6-0.6-0.8-0.7
	c-0.3-0.1-0.5,0-0.8,0.1c-0.1,0.1-0.2,0.2-0.3,0.4c0,0.1,0,0.3,0.1,0.6c0.1,0.2,0.2,0.5,0.4,1.1c0.3,0.7,0.4,1.3,0.4,1.7
	c-0.1,0.6-0.3,1-0.8,1.4c-0.3,0.2-0.6,0.3-1,0.3c-0.4,0-0.7-0.1-1.1-0.3c-0.4-0.2-0.7-0.5-1-1c-0.5-0.7-0.8-1.4-0.7-2
	c0-0.6,0.3-1.1,0.8-1.5l0.9,1.1c-0.3,0.3-0.4,0.5-0.4,0.8c0,0.3,0.1,0.5,0.3,0.9c0.2,0.3,0.5,0.5,0.8,0.6c0.2,0.1,0.3,0,0.5-0.1
	c0.1-0.1,0.2-0.2,0.2-0.4c0-0.2-0.1-0.7-0.4-1.3c-0.3-0.7-0.4-1.2-0.5-1.5c-0.1-0.4,0-0.7,0.1-1c0.1-0.3,0.4-0.6,0.7-0.9
	c0.3-0.2,0.7-0.4,1.1-0.4c0.4,0,0.8,0.1,1.2,0.3c0.4,0.2,0.7,0.6,1.1,1.1c0.5,0.7,0.8,1.4,0.7,2C33,109.3,32.7,109.9,32.2,110.5"/>
<polygon fill="#231F20" points="29.5,102.6 23.5,106.1 22.7,104.9 28.8,101.4 "/>
<polygon fill="#231F20" points="27,97.9 21.7,100.3 22.6,102.2 21.5,102.7 19.2,97.6 20.2,97.1 21.1,99 26.4,96.6 "/>
<polygon fill="#231F20" points="25,92.9 18.3,95.2 17.9,93.9 24.5,91.6 "/>
<polygon fill="#231F20" points="22.1,80.4 16.3,81 16.5,83.1 15.3,83.2 14.7,77.6 15.9,77.5 16.1,79.6 21.9,79 "/>
<polygon fill="#231F20" points="21.7,75 14.7,74.8 14.9,69.6 16,69.6 15.9,73.4 17.5,73.5 17.6,69.9 18.8,70 18.6,73.5 20.6,73.6 
	20.7,69.6 21.9,69.7 "/>
<polygon fill="#231F20" points="22.1,67.5 15.2,66.2 15.4,64.8 18.5,65.4 15.9,62 16.3,60.1 18.5,63.2 23.2,61.2 22.9,63 19.3,64.3 
	20.3,65.7 22.4,66.1 "/>
<polygon fill="#231F20" points="23.7,59.5 17,57.3 17.5,56 22.8,54.7 18.4,53.2 18.8,52 25.5,54.2 25,55.5 19.8,56.8 24.1,58.2 "/>
<rect x="20.1" y="49.1" transform="matrix(0.9083 0.4183 -0.4183 0.9083 23.0088 -5.3015)" fill="#231F20" width="7" height="1.4"/>
<polygon fill="#231F20" points="28.1,48.5 22.1,44.9 22.8,43.7 25.5,45.3 24.3,41.2 25.3,39.6 26.2,43.2 31.4,43 30.4,44.6 
	26.6,44.6 27,46.2 28.8,47.3 "/>
<path fill="#231F20" d="M36.4,36.7l-1,1.2l-1.6-0.5L32,39.6l0.9,1.5l-1,1.2l-3.7-6.6l1-1.2L36.4,36.7z M32.6,37L30,36.1l1.4,2.4
	L32.6,37z"/>
<polygon fill="#231F20" points="37.7,35.5 33,30.4 34,29.4 38,33.6 40.6,31.2 41.4,32.1 "/>
<polygon fill="#231F20" points="48.9,26.7 45.7,20.4 47.6,19.4 50.9,23.1 49.9,18.3 51.8,17.3 55,23.6 53.8,24.2 51.3,19.2 
	52.5,24.8 51.3,25.4 47.6,21.2 50.1,26.1 "/>
<path fill="#231F20" d="M63.3,20.7l-1.5,0.5l-1.1-1.3L58,20.7L58,22.4l-1.4,0.5l0.4-7.5l1.4-0.5L63.3,20.7z M59.9,18.9l-1.7-2.2
	l-0.1,2.8L59.9,18.9z"/>
<polygon fill="#231F20" points="65,20.3 63.8,13.5 65.2,13.2 66.2,18.9 69.7,18.3 69.9,19.4 "/>
<path fill="#231F20" d="M78.3,18.9L76.7,19L76,17.4l-2.8,0.1l-0.5,1.6l-1.5,0.1l2.4-7.2l1.5-0.1L78.3,18.9z M75.5,16.2l-1.1-2.6
	l-0.8,2.7L75.5,16.2z"/>
<polygon fill="#231F20" points="81,19.1 81.2,16.2 78.9,11.9 80.6,12 82,14.9 83.9,12.3 85.5,12.4 82.6,16.3 82.4,19.2 "/>
<path fill="#231F20" d="M86.8,17.4l1.4,0.2c0,0.5,0.1,0.8,0.3,1.1c0.2,0.3,0.5,0.4,0.9,0.5c0.4,0.1,0.8,0.1,1.1-0.1
	c0.3-0.1,0.4-0.3,0.5-0.6c0-0.2,0-0.3-0.1-0.4c-0.1-0.1-0.2-0.3-0.4-0.4c-0.1-0.1-0.5-0.3-1.1-0.5c-0.7-0.3-1.2-0.7-1.4-1
	c-0.3-0.5-0.5-1-0.3-1.5c0.1-0.4,0.2-0.7,0.5-0.9c0.3-0.3,0.6-0.4,1-0.5c0.4-0.1,0.9-0.1,1.4,0c0.9,0.2,1.5,0.5,1.8,1
	c0.4,0.5,0.5,1,0.4,1.7l-1.4-0.2c0-0.4-0.1-0.6-0.2-0.8c-0.2-0.2-0.4-0.3-0.8-0.4c-0.4-0.1-0.7-0.1-1,0c-0.2,0.1-0.3,0.2-0.3,0.4
	c0,0.2,0,0.3,0.1,0.5c0.1,0.2,0.5,0.4,1.2,0.7c0.6,0.3,1.1,0.6,1.4,0.8c0.3,0.2,0.5,0.5,0.6,0.9c0.1,0.3,0.1,0.7,0,1.2
	c-0.1,0.4-0.3,0.7-0.6,1c-0.3,0.3-0.7,0.5-1.1,0.6c-0.4,0.1-1,0.1-1.6-0.1c-0.9-0.2-1.5-0.5-1.9-1C86.9,18.8,86.7,18.2,86.8,17.4"/>
<polygon fill="#231F20" points="94,21.5 96.1,14.8 97.5,15.2 95.3,21.9 "/>
<path fill="#231F20" d="M103.4,25.2l-1.4-0.6l0.1-1.7l-2.6-1.1L98.3,23l-1.4-0.6l5.4-5.3l1.4,0.6L103.4,25.2z M102.1,21.6l0.2-2.8
	l-1.9,2L102.1,21.6z"/>
<polygon fill="#231F20" points="110.8,30 115.4,24.6 117,26 114.9,30.5 118.9,27.6 120.6,29 116,34.4 115,33.5 118.6,29.3 114,32.6 
	112.9,31.7 115.4,26.6 111.8,30.8 "/>
<polygon fill="#231F20" points="117.7,36.1 123,31.5 126.5,35.4 125.6,36.2 123.1,33.3 121.9,34.3 124.2,37 123.3,37.8 121,35.1 
	119.5,36.4 122.1,39.4 121.3,40.1 "/>
<polygon fill="#231F20" points="122.6,41.9 128.4,38.1 129.2,39.3 124.4,42.5 126.3,45.4 125.3,46.1 "/>
<path fill="#231F20" d="M129.1,53.6l-0.7-1.4l1.2-1.3l-1.2-2.5l-1.7,0.2l-0.7-1.4l7.5-0.6l0.7,1.4L129.1,53.6z M130.5,50l1.9-2
	l-2.8,0.3L130.5,50z"/>
<polygon fill="#231F20" points="129.7,55.2 136.4,53.1 136.9,54.5 133.9,55.4 137.7,57.2 138.3,59.1 134.9,57.4 131.6,61.3 
	131.1,59.5 133.7,56.7 132.2,56 130.2,56.6 "/>
<path fill="#231F20" d="M133,69.3l-0.2-1.5l1.5-0.9l-0.4-2.8l-1.7-0.3l-0.2-1.5l7.4,1.6l0.2,1.5L133,69.3z M135.3,66.3l2.4-1.4
	l-2.7-0.5L135.3,66.3z"/>
<path fill="#FFFFFF" d="M74,75.8c0-1.9,1.5-3.4,3.4-3.4c1.9,0,3.4,1.5,3.4,3.4c0,1.9-1.5,3.4-3.4,3.4C75.6,79.1,74,77.6,74,75.8"/>
<path fill="#FFFFFF" d="M282.7,99.6l-0.2,0.5c-1,3.1-2.2,5.2-3.5,6.5c-1.4,1.3-2.9,1.9-5,1.9c-2.6,0-4.6-1-6.5-3.4
	c-1.5-1.9-2.7-4.8-3.1-8.8h15l14.6-0.2l0.1-4.2c0-8.6-1.8-15.4-5.7-20.3c-3.8-4.8-8.8-7.4-14.7-7.4h0h-0.1c0,0,0,0,0,0
	c-6,0-11.3,2.6-15.1,7.5c-4,5-5.8,11.9-5.8,20.7c0,8.4,1.8,15.2,5.8,20c3.8,4.8,9.2,7.3,15.4,7.3h0.1c0,0,0,0,0.1,0h0h0h0h0.1h0
	c4.8,0,9.2-1.5,12.6-4.5c3.5-3,5.8-7.5,7-13l0.2-0.9l0.3-1.4l-2.6-0.4H282.7z M267.6,78.6c1.9-2.1,3.7-3,6.1-3c2.7,0,4.6,1,6.5,3.6
	c0.9,1.2,1.6,3.2,2,5.9h-17.4C265.2,82.4,266.2,80.2,267.6,78.6"/>
<path fill="#FFFFFF" d="M10.9,196.8h2.5v6.6c0,1,0,1.7,0.1,2c0.1,0.5,0.4,0.9,0.8,1.2c0.4,0.3,0.9,0.5,1.6,0.5
	c0.7,0,1.2-0.1,1.6-0.4c0.4-0.3,0.6-0.6,0.6-1.1c0.1-0.4,0.1-1.1,0.1-2.1v-6.8h2.5v6.4c0,1.5-0.1,2.5-0.2,3.1
	c-0.1,0.6-0.4,1.1-0.7,1.5c-0.4,0.4-0.8,0.8-1.4,1c-0.6,0.2-1.4,0.4-2.4,0.4c-1.2,0-2.1-0.1-2.7-0.4c-0.6-0.3-1.1-0.6-1.4-1
	c-0.4-0.4-0.6-0.9-0.7-1.4c-0.2-0.7-0.2-1.7-0.2-3.1V196.8z"/>
<polygon fill="#FFFFFF" points="23.3,209 23.3,196.8 25.7,196.8 30.7,205 30.7,196.8 33,196.8 33,209 30.5,209 25.6,201.1 25.6,209 
	"/>
<rect x="35.5" y="196.8" fill="#FFFFFF" width="2.5" height="12.2"/>
<polygon fill="#FFFFFF" points="43.5,209 39.1,196.8 41.8,196.8 44.9,205.8 47.9,196.8 50.5,196.8 46.1,209 "/>
<polygon fill="#FFFFFF" points="51.7,209 51.7,196.8 60.8,196.8 60.8,198.9 54.2,198.9 54.2,201.6 60.3,201.6 60.3,203.6 
	54.2,203.6 54.2,207 61,207 61,209 "/>
<path fill="#FFFFFF" d="M63.1,209v-12.2h5.2c1.3,0,2.3,0.1,2.9,0.3c0.6,0.2,1.1,0.6,1.4,1.2c0.4,0.6,0.5,1.2,0.5,1.9
	c0,0.9-0.3,1.7-0.8,2.3c-0.5,0.6-1.3,1-2.4,1.1c0.5,0.3,1,0.7,1.3,1c0.3,0.4,0.8,1,1.4,2l1.5,2.4h-3l-1.8-2.7
	c-0.6-0.9-1.1-1.6-1.3-1.8c-0.2-0.2-0.5-0.4-0.7-0.5c-0.3-0.1-0.7-0.1-1.2-0.1h-0.5v5.1H63.1z M65.6,202h1.8c1.2,0,1.9-0.1,2.2-0.2
	c0.3-0.1,0.5-0.3,0.7-0.5c0.2-0.2,0.3-0.6,0.3-0.9c0-0.4-0.1-0.7-0.3-1c-0.2-0.3-0.5-0.4-0.9-0.5c-0.2,0-0.8,0-1.8,0h-1.9V202z"/>
<path fill="#FFFFFF" d="M74.8,205.1l2.4-0.2c0.1,0.8,0.4,1.4,0.9,1.8c0.4,0.4,1,0.6,1.8,0.6c0.8,0,1.4-0.2,1.8-0.5
	c0.4-0.3,0.6-0.7,0.6-1.2c0-0.3-0.1-0.5-0.3-0.7c-0.2-0.2-0.5-0.4-0.9-0.5c-0.3-0.1-0.9-0.3-2-0.5c-1.3-0.3-2.3-0.7-2.8-1.2
	c-0.8-0.7-1.1-1.5-1.1-2.5c0-0.6,0.2-1.2,0.5-1.8c0.4-0.5,0.9-1,1.5-1.2c0.7-0.3,1.5-0.4,2.4-0.4c1.5,0,2.7,0.3,3.5,1
	c0.8,0.7,1.2,1.6,1.2,2.7l-2.5,0.1c-0.1-0.6-0.3-1.1-0.7-1.4c-0.3-0.3-0.9-0.4-1.6-0.4c-0.7,0-1.3,0.2-1.7,0.4
	c-0.3,0.2-0.4,0.4-0.4,0.8c0,0.3,0.1,0.5,0.4,0.7c0.3,0.3,1.1,0.5,2.3,0.8c1.2,0.3,2.1,0.6,2.7,0.9c0.6,0.3,1,0.7,1.4,1.2
	c0.3,0.5,0.5,1.2,0.5,1.9c0,0.7-0.2,1.4-0.6,2c-0.4,0.6-0.9,1.1-1.6,1.4c-0.7,0.3-1.6,0.4-2.7,0.4c-1.5,0-2.7-0.4-3.6-1.1
	C75.5,207.5,75,206.4,74.8,205.1"/>
<rect x="86.8" y="196.8" fill="#FFFFFF" width="2.5" height="12.2"/>
<polygon fill="#FFFFFF" points="94.4,209 94.4,198.9 90.7,198.9 90.7,196.8 100.5,196.8 100.5,198.9 96.8,198.9 96.8,209 "/>
<rect x="102" y="196.8" fill="#FFFFFF" width="2.5" height="12.2"/>
<polygon fill="#FFFFFF" points="114.3,209 114.3,198.9 110.7,198.9 110.7,196.8 120.4,196.8 120.4,198.9 116.8,198.9 116.8,209 "/>
<polygon fill="#FFFFFF" points="122,209 122,196.8 131.1,196.8 131.1,198.9 124.5,198.9 124.5,201.6 130.6,201.6 130.6,203.6 
	124.5,203.6 124.5,207 131.3,207 131.3,209 "/>
<polygon fill="#FFFFFF" points="133.4,209 133.4,196.8 135.9,196.8 135.9,202.2 140.9,196.8 144.2,196.8 139.6,201.6 144.5,209 
	141.3,209 137.9,203.3 135.9,205.3 135.9,209 "/>
<polygon fill="#FFFFFF" points="145.8,209 145.8,196.8 148.2,196.8 153.2,205 153.2,196.8 155.5,196.8 155.5,209 153,209 
	148.1,201.1 148.1,209 "/>
<rect x="158" y="196.8" fill="#FFFFFF" width="2.5" height="12.2"/>
<polygon fill="#FFFFFF" points="162.9,209 162.9,196.8 165.3,196.8 165.3,202.2 170.3,196.8 173.7,196.8 169,201.6 173.9,209 
	170.7,209 167.3,203.3 165.3,205.3 165.3,209 "/>
<path fill="#FFFFFF" d="M186.2,209h-2.7l-1.1-2.8h-4.9l-1,2.8h-2.6l4.8-12.2h2.6L186.2,209z M181.7,204.2l-1.7-4.5l-1.7,4.5H181.7z"
	/>
<polygon fill="#FFFFFF" points="187.6,209 187.6,196.9 190.1,196.9 190.1,207 196.2,207 196.2,209 "/>
<polygon fill="#FFFFFF" points="202.4,209 202.4,196.8 206.1,196.8 208.3,205.1 210.5,196.8 214.2,196.8 214.2,209 211.9,209 
	211.9,199.4 209.5,209 207.1,209 204.7,199.4 204.7,209 "/>
<path fill="#FFFFFF" d="M227.7,209H225l-1.1-2.8H219l-1,2.8h-2.6l4.8-12.2h2.6L227.7,209z M223.1,204.2l-1.7-4.5l-1.7,4.5H223.1z"/>
<polygon fill="#FFFFFF" points="229,209 229,196.9 231.5,196.9 231.5,207 237.7,207 237.7,209 "/>
<path fill="#FFFFFF" d="M250.5,209h-2.7l-1.1-2.8h-4.9l-1,2.8h-2.6l4.8-12.2h2.6L250.5,209z M245.9,204.2l-1.7-4.5l-1.6,4.5H245.9z"
	/>
<polygon fill="#FFFFFF" points="253.4,209 253.4,203.9 248.9,196.8 251.8,196.8 254.7,201.6 257.5,196.8 260.4,196.8 255.9,203.9 
	255.9,209 "/>
<path fill="#FFFFFF" d="M261,205.1l2.4-0.2c0.1,0.8,0.4,1.4,0.9,1.8c0.4,0.4,1,0.6,1.8,0.6c0.8,0,1.4-0.2,1.8-0.5
	c0.4-0.3,0.6-0.7,0.6-1.2c0-0.3-0.1-0.5-0.3-0.7c-0.2-0.2-0.5-0.4-0.9-0.5c-0.3-0.1-1-0.3-2-0.5c-1.3-0.3-2.3-0.7-2.8-1.2
	c-0.7-0.7-1.1-1.5-1.1-2.5c0-0.6,0.2-1.2,0.5-1.8c0.4-0.5,0.9-1,1.5-1.2c0.7-0.3,1.5-0.4,2.4-0.4c1.5,0,2.7,0.3,3.5,1
	c0.8,0.7,1.2,1.6,1.2,2.7l-2.5,0.1c-0.1-0.6-0.3-1.1-0.7-1.4c-0.4-0.3-0.9-0.4-1.6-0.4c-0.7,0-1.3,0.2-1.7,0.4
	c-0.3,0.2-0.4,0.4-0.4,0.8c0,0.3,0.1,0.5,0.4,0.7c0.3,0.3,1.1,0.5,2.3,0.8c1.2,0.3,2.1,0.6,2.7,0.9c0.6,0.3,1,0.7,1.4,1.2
	c0.3,0.5,0.5,1.2,0.5,1.9c0,0.7-0.2,1.4-0.6,2c-0.4,0.6-0.9,1.1-1.6,1.4c-0.7,0.3-1.6,0.4-2.7,0.4c-1.5,0-2.7-0.4-3.6-1.1
	C261.6,207.5,261.1,206.4,261,205.1"/>
<rect x="272.9" y="196.8" fill="#FFFFFF" width="2.5" height="12.2"/>
<path fill="#FFFFFF" d="M288.8,209h-2.7l-1.1-2.8h-4.9l-1,2.8h-2.6l4.8-12.2h2.6L288.8,209z M284.2,204.2l-1.7-4.5l-1.7,4.5H284.2z"
	/>
<polygon fill="#FFFFFF" points="294.2,209 294.2,196.8 297.9,196.8 300.1,205.1 302.3,196.8 306,196.8 306,209 303.7,209 
	303.7,199.4 301.3,209 298.9,209 296.5,199.4 296.5,209 "/>
<polygon fill="#FFFFFF" points="308.4,209 308.4,196.8 317.5,196.8 317.5,198.9 310.9,198.9 310.9,201.6 317.1,201.6 317.1,203.6 
	310.9,203.6 310.9,207 317.7,207 317.7,209 "/>
<polygon fill="#FFFFFF" points="319.9,209 319.9,196.9 322.4,196.9 322.4,207 328.5,207 328.5,209 "/>
<path fill="#FFFFFF" d="M341.3,209h-2.7l-1.1-2.8h-4.9l-1,2.8H329l4.8-12.2h2.6L341.3,209z M336.8,204.2l-1.7-4.5l-1.7,4.5H336.8z"
	/>
<polygon fill="#FFFFFF" points="342.7,209 342.7,196.8 345.1,196.8 345.1,202.2 350.1,196.8 353.4,196.8 348.8,201.6 353.7,209 
	350.5,209 347.1,203.3 345.1,205.3 345.1,209 "/>
<path fill="#FFFFFF" d="M366,209h-2.7l-1.1-2.8h-4.9l-1,2.8h-2.6l4.8-12.2h2.6L366,209z M361.4,204.2l-1.7-4.5l-1.7,4.5H361.4z"/>
<rect x="11.1" y="188.4" fill="#FFFFFF" width="354.6" height="1.3"/>
</svg>
